<?xml version="1.0" encoding="UTF-8" standalone="no"?>
<!DOCTYPE svg PUBLIC "-//W3C//DTD SVG 1.1//EN" "http://www.w3.org/Graphics/SVG/1.1/DTD/svg11.dtd">
<svg version="1.1" xmlns="http://www.w3.org/2000/svg" xmlns:xlink="http://www.w3.org/1999/xlink" preserveAspectRatio="xMidYMid meet" viewBox="0 0 640 640" width="640" height="640"><defs><path d="M167.43 297.59C103.69 297.59 63.85 297.59 47.92 297.59C44.83 297.59 42.9 294.25 44.43 291.58C66.73 252.55 131.12 139.86 153.65 100.43C154.64 98.71 157.14 98.76 158.05 100.52C180.85 144.41 237.37 253.25 257.72 292.46C266.51 309.38 283.99 320 303.06 320C303.06 320 303.06 320 303.06 320C229.28 183.68 183.17 98.47 164.72 64.39C160.87 57.28 150.73 57.13 146.67 64.12C119.55 110.82 48.48 233.23 21.61 279.5C15.29 290.38 16.4 304.03 24.38 313.76C25.4 315.01 17.94 305.91 19.65 307.99C25.88 315.59 35.2 320 45.03 320C69.51 320 121.91 320 145.02 320C157.39 320 167.43 309.97 167.43 297.59C167.43 297.59 167.43 297.59 167.43 297.59Z" id="aWI7nhPg"></path><path d="M402.18 48.16L402.18 72.3L367.7 72.3L367.7 296.44L574.6 296.44L574.6 264.25L601.03 264.25L601.03 320L340.11 320C340.11 183.69 340.11 98.49 340.11 64.42C340.11 55.44 347.39 48.16 356.37 48.16C362.48 48.16 377.75 48.16 402.18 48.16Z" id="a3DFm7Ys7V"></path><path d="M541.26 68.31L541.26 48.16C565.06 48.16 579.93 48.16 585.88 48.16C594.25 48.16 601.03 54.95 601.03 63.32C601.03 66.97 601.03 76.09 601.03 90.69L576.9 90.69C576.9 82.5 576.9 77.38 576.9 75.33C576.9 71.45 573.75 68.31 569.87 68.31C566.05 68.31 556.52 68.31 541.26 68.31Z" id="b13kozOGIL"></path><path d="M263.61 417.41C256.47 408.48 247.19 401.5 236.64 397.11C232.73 395.48 239.85 398.45 236.64 397.11C223.69 391.72 209.98 388.37 196 387.19C192.08 386.86 194.78 387.08 189.2 386.61C180.69 385.89 172.13 385.98 163.63 386.87C159.61 387.29 166.19 386.6 163.63 386.87C150.31 388.26 137.3 391.75 125.06 397.19C122.09 398.51 127.14 396.27 123.04 398.09C114.53 401.87 106.69 407.01 99.82 413.29C98 414.95 93.45 419.11 86.17 425.76C86.15 425.79 86.14 425.81 86.14 425.82C76.19 441.07 68.82 457.87 64.32 475.52C63.87 477.31 65.68 470.18 64.32 475.52C63.16 480.07 66.6 484.49 71.3 484.49C74.03 484.49 80.87 484.49 91.81 484.49L91.81 510.93C80.36 510.93 73.21 510.93 70.35 510.93C66.38 510.93 63.68 514.95 65.18 518.63C67.29 523.78 69.85 530.04 71.81 534.82C74.4 541.17 77.77 547.17 81.84 552.69C83.83 555.39 80.61 551.03 81.84 552.69C88.47 561.69 95.91 570.06 104.06 577.71C105.29 578.86 99.18 573.13 101.03 574.86C107.11 580.57 113.94 585.43 121.32 589.31C123.46 590.44 110.2 583.46 110.2 583.46C124.68 591.08 140.21 596.5 156.28 599.56C158.7 600.01 146.25 597.65 149.8 598.32C162.05 600.65 174.65 600.57 186.87 598.08C189.95 597.46 177.76 599.94 180.11 599.46C194.86 596.46 209.33 592.27 223.4 586.93C227.66 585.32 219.18 588.54 223.4 586.93C237.43 581.61 250.16 573.38 260.77 562.77C260.77 562.77 260.77 562.77 260.77 562.77C267.13 555.29 271.1 550.62 272.69 548.75C276.86 543.84 284.26 543.36 289.04 547.68C292.37 550.7 294.06 552.22 297.5 555.33C302.25 559.63 303.21 566.72 299.79 572.13C297.53 575.71 299.41 572.73 297.83 575.22C291.66 584.98 283.56 593.37 274.03 599.9C269.77 602.82 276.92 597.92 274.03 599.9C259.88 609.59 244.62 617.56 228.57 623.63C224.9 625.02 233.4 621.8 228.57 623.63C216.38 628.25 203.62 631.21 190.64 632.44C185.58 632.92 194.55 632.07 190.64 632.44C173.88 634.03 156.98 633.18 140.47 629.92C136.48 629.13 145.45 630.9 140.47 629.92C127.27 627.31 114.56 622.64 102.82 616.06C100.62 614.83 106.36 618.05 102.82 616.06C95.49 611.96 88.49 607.28 81.9 602.07C78.85 599.66 83.88 603.63 81.9 602.07C71.78 594.07 62.91 584.61 55.59 573.99C53.2 570.53 57.8 577.2 55.59 573.99C47.66 562.5 41.29 550.01 36.64 536.84C35.29 532.99 38.04 540.81 36.64 536.84C32.14 524.07 29.32 510.76 28.26 497.25C28.01 493.96 28.58 501.32 28.26 497.25C27.41 486.37 28.36 475.42 31.08 464.85C32.44 459.53 30.26 468.04 31.08 464.85C35.59 447.28 43.22 430.68 53.62 415.82C55.31 413.42 50.48 420.31 53.62 415.82C59.21 407.84 65.78 400.6 73.17 394.26C75.77 392.03 70.95 396.16 73.17 394.26C81.81 386.86 91.35 380.6 101.58 375.64C106.08 373.46 98.5 377.14 101.58 375.64C116.56 368.38 132.19 362.52 148.26 358.14C151.01 357.38 143.43 359.45 148.26 358.14C157.4 355.64 166.84 354.38 176.32 354.38C181.51 354.38 173.46 354.38 176.32 354.38C193.51 354.38 210.59 357.11 226.92 362.46C230.47 363.63 228.43 362.96 234.97 365.1C241.41 367.22 247.54 370.19 253.18 373.95C257.69 376.96 251.48 372.82 253.18 373.95C268.14 383.92 281.7 395.84 293.53 409.38C295.96 412.17 290.97 406.45 294.78 410.82C300.46 417.33 298.83 427.39 291.39 431.77C289.17 433.07 293.19 430.71 290.06 432.55C284.46 435.84 277.3 434.52 273.25 429.46C269.15 424.33 266.95 421.59 263.61 417.41Z" id="f44VBim9qF"></path><path d="M366.44 366.67L474.02 471.26L580.23 366.67C580.23 366.67 580.23 366.67 580.23 366.67C591.72 366.67 601.03 375.98 601.03 387.47C601.03 387.92 601.03 389.03 601.03 390.8L494.02 492.99L601.03 611.49C601.03 611.98 601.03 612.29 601.03 612.41C601.03 623.9 591.72 633.22 580.23 633.22C580.23 633.22 580.23 633.22 580.23 633.22L474.02 514.94L362.99 633.22C362.38 633.22 361.99 633.22 361.84 633.22C349.84 633.22 340.11 623.49 340.11 611.49C340.11 611.49 340.11 611.49 340.11 611.49L451.49 492.99L340.11 390.8C340.11 390.8 340.11 390.8 340.11 390.8C340.11 377.47 350.92 366.67 364.25 366.67C364.54 366.67 365.27 366.67 366.44 366.67Z" id="b1YACvEBy0"></path></defs><g><g><g><use xlink:href="#aWI7nhPg" opacity="1" fill="#1a72e8" fill-opacity="1"></use><g><use xlink:href="#aWI7nhPg" opacity="1" fill-opacity="0" stroke="#000000" stroke-width="1" stroke-opacity="0"></use></g></g><g><use xlink:href="#a3DFm7Ys7V" opacity="1" fill="#db4437" fill-opacity="1"></use><g><use xlink:href="#a3DFm7Ys7V" opacity="1" fill-opacity="0" stroke="#000000" stroke-width="1" stroke-opacity="0"></use></g></g><g><use xlink:href="#b13kozOGIL" opacity="1" fill="#db4437" fill-opacity="1"></use><g><use xlink:href="#b13kozOGIL" opacity="1" fill-opacity="0" stroke="#000000" stroke-width="1" stroke-opacity="0"></use></g></g><g><use xlink:href="#f44VBim9qF" opacity="1" fill="#f4b400" fill-opacity="1"></use><g><use xlink:href="#f44VBim9qF" opacity="1" fill-opacity="0" stroke="#000000" stroke-width="1" stroke-opacity="0"></use></g></g><g><use xlink:href="#b1YACvEBy0" opacity="1" fill="#2fbd58" fill-opacity="1"></use><g><use xlink:href="#b1YACvEBy0" opacity="1" fill-opacity="0" stroke="#000000" stroke-width="1" stroke-opacity="0"></use></g></g></g></g></svg>